<svg id="enrichment_category_graph_svg" height="302.27976pt" version="1.1" viewBox="0 0 659.39976 302.27976" width="659.39976pt" xmlns="http://www.w3.org/2000/svg" xmlns:xlink="http://www.w3.org/1999/xlink">
 <metadata>
  <rdf:rdf xmlns:cc="http://creativecommons.org/ns#" xmlns:dc="http://purl.org/dc/elements/1.1/" xmlns:rdf="http://www.w3.org/1999/02/22-rdf-syntax-ns#">
   <cc:work>
    <dc:type rdf:resource="http://purl.org/dc/dcmitype/StillImage"/>
    <dc:date>2025-05-09T18:52:19.669501</dc:date>
    <dc:format>image/svg+xml</dc:format>
    <dc:creator>
     <cc:agent>
      <dc:title>Matplotlib v3.4.2, https://matplotlib.org/</dc:title>
     </cc:agent>
    </dc:creator>
   </cc:work>
  </rdf:rdf>
 </metadata>
 <defs>
  <style type="text/css">*{stroke-linecap:butt;stroke-linejoin:round;}</style>
 </defs>
 <g id="figure_1">
  <g id="patch_1">
   <path d="M 0 302.27976 &#10;L 659.39976 302.27976 &#10;L 659.39976 0 &#10;L 0 0 &#10;z&#10;" style="fill:none;"/>
  </g>
  <g id="axes_1">
   <g id="patch_2">
    <path d="M 161.285469 265.022801 &#10;L 546.43271 265.022801 &#10;L 546.43271 21.207656 &#10;L 161.285469 21.207656 &#10;z&#10;" style="fill:none;"/>
   </g>
   <g id="matplotlib.axis_1">
    <g id="xtick_1">
     <g id="line2d_1">
      <path clip-path="url(#p489051e21f)" d="M 172.590398 265.022801 &#10;L 172.590398 21.207656 &#10;" style="fill:none;stroke:#d3d3d3;stroke-dasharray:2.22,0.96;stroke-dashoffset:0;stroke-width:0.6;"/>
     </g>
     <g id="line2d_2"/>
     <g id="text_1">
      <text style="font-family:Arial;font-size:9px;font-stretch:normal;font-style:normal;font-weight:normal;text-anchor:middle;" transform="rotate(-0, 172.590398, 274.964832)" x="172.590398" y="274.964832">0.45</text>
     </g>
    </g>
    <g id="xtick_2">
     <g id="line2d_3">
      <path clip-path="url(#p489051e21f)" d="M 217.907571 265.022801 &#10;L 217.907571 21.207656 &#10;" style="fill:none;stroke:#d3d3d3;stroke-dasharray:2.22,0.96;stroke-dashoffset:0;stroke-width:0.6;"/>
     </g>
     <g id="line2d_4"/>
     <g id="text_2">
      <text style="font-family:Arial;font-size:9px;font-stretch:normal;font-style:normal;font-weight:normal;text-anchor:middle;" transform="rotate(-0, 217.907571, 274.964832)" x="217.907571" y="274.964832">0.50</text>
     </g>
    </g>
    <g id="xtick_3">
     <g id="line2d_5">
      <path clip-path="url(#p489051e21f)" d="M 263.224744 265.022801 &#10;L 263.224744 21.207656 &#10;" style="fill:none;stroke:#d3d3d3;stroke-dasharray:2.22,0.96;stroke-dashoffset:0;stroke-width:0.6;"/>
     </g>
     <g id="line2d_6"/>
     <g id="text_3">
      <text style="font-family:Arial;font-size:9px;font-stretch:normal;font-style:normal;font-weight:normal;text-anchor:middle;" transform="rotate(-0, 263.224744, 274.964832)" x="263.224744" y="274.964832">0.55</text>
     </g>
    </g>
    <g id="xtick_4">
     <g id="line2d_7">
      <path clip-path="url(#p489051e21f)" d="M 308.541916 265.022801 &#10;L 308.541916 21.207656 &#10;" style="fill:none;stroke:#d3d3d3;stroke-dasharray:2.22,0.96;stroke-dashoffset:0;stroke-width:0.6;"/>
     </g>
     <g id="line2d_8"/>
     <g id="text_4">
      <text style="font-family:Arial;font-size:9px;font-stretch:normal;font-style:normal;font-weight:normal;text-anchor:middle;" transform="rotate(-0, 308.541916, 274.964832)" x="308.541916" y="274.964832">0.60</text>
     </g>
    </g>
    <g id="xtick_5">
     <g id="line2d_9">
      <path clip-path="url(#p489051e21f)" d="M 353.859089 265.022801 &#10;L 353.859089 21.207656 &#10;" style="fill:none;stroke:#d3d3d3;stroke-dasharray:2.22,0.96;stroke-dashoffset:0;stroke-width:0.6;"/>
     </g>
     <g id="line2d_10"/>
     <g id="text_5">
      <text style="font-family:Arial;font-size:9px;font-stretch:normal;font-style:normal;font-weight:normal;text-anchor:middle;" transform="rotate(-0, 353.859089, 274.964832)" x="353.859089" y="274.964832">0.65</text>
     </g>
    </g>
    <g id="xtick_6">
     <g id="line2d_11">
      <path clip-path="url(#p489051e21f)" d="M 399.176262 265.022801 &#10;L 399.176262 21.207656 &#10;" style="fill:none;stroke:#d3d3d3;stroke-dasharray:2.22,0.96;stroke-dashoffset:0;stroke-width:0.6;"/>
     </g>
     <g id="line2d_12"/>
     <g id="text_6">
      <text style="font-family:Arial;font-size:9px;font-stretch:normal;font-style:normal;font-weight:normal;text-anchor:middle;" transform="rotate(-0, 399.176262, 274.964832)" x="399.176262" y="274.964832">0.70</text>
     </g>
    </g>
    <g id="xtick_7">
     <g id="line2d_13">
      <path clip-path="url(#p489051e21f)" d="M 444.493435 265.022801 &#10;L 444.493435 21.207656 &#10;" style="fill:none;stroke:#d3d3d3;stroke-dasharray:2.22,0.96;stroke-dashoffset:0;stroke-width:0.6;"/>
     </g>
     <g id="line2d_14"/>
     <g id="text_7">
      <text style="font-family:Arial;font-size:9px;font-stretch:normal;font-style:normal;font-weight:normal;text-anchor:middle;" transform="rotate(-0, 444.493435, 274.964832)" x="444.493435" y="274.964832">0.75</text>
     </g>
    </g>
    <g id="xtick_8">
     <g id="line2d_15">
      <path clip-path="url(#p489051e21f)" d="M 489.810608 265.022801 &#10;L 489.810608 21.207656 &#10;" style="fill:none;stroke:#d3d3d3;stroke-dasharray:2.22,0.96;stroke-dashoffset:0;stroke-width:0.6;"/>
     </g>
     <g id="line2d_16"/>
     <g id="text_8">
      <text style="font-family:Arial;font-size:9px;font-stretch:normal;font-style:normal;font-weight:normal;text-anchor:middle;" transform="rotate(-0, 489.810608, 274.964832)" x="489.810608" y="274.964832">0.80</text>
     </g>
    </g>
    <g id="xtick_9">
     <g id="line2d_17">
      <path clip-path="url(#p489051e21f)" d="M 535.127781 265.022801 &#10;L 535.127781 21.207656 &#10;" style="fill:none;stroke:#d3d3d3;stroke-dasharray:2.22,0.96;stroke-dashoffset:0;stroke-width:0.6;"/>
     </g>
     <g id="line2d_18"/>
     <g id="text_9">
      <text style="font-family:Arial;font-size:9px;font-stretch:normal;font-style:normal;font-weight:normal;text-anchor:middle;" transform="rotate(-0, 535.127781, 274.964832)" x="535.127781" y="274.964832">0.85</text>
     </g>
    </g>
    <g id="text_10">
     <text style="font-family:Arial;font-size:9px;font-stretch:normal;font-style:normal;font-weight:normal;text-anchor:middle;" transform="rotate(-0, 353.859089, 287.305301)" x="353.859089" y="287.305301">Signal</text>
    </g>
   </g>
   <g id="matplotlib.axis_2">
    <g id="ytick_1">
     <g id="line2d_19"/>
     <g id="text_11">
      <text style="font-family:Arial;font-size:9px;font-stretch:normal;font-style:normal;font-weight:normal;" transform="translate(28.707187 64.145435)">Mixed, incl. Antigen binding, and</text>
      <text style="font-family:Arial;font-size:9px;font-stretch:normal;font-style:normal;font-weight:normal;" transform="translate(24.71625 73.901716)">Generation of second messenger</text>
      <text style="font-family:Arial;font-size:9px;font-stretch:normal;font-style:normal;font-weight:normal;" transform="translate(117.27 83.526373)">molecules</text>
     </g>
    </g>
    <g id="ytick_2">
     <g id="line2d_20"/>
     <g id="text_12">
      <text style="font-family:Arial;font-size:9px;font-stretch:normal;font-style:normal;font-weight:normal;" transform="translate(28.707187 117.731761)">Mixed, incl. Antigen binding, and</text>
      <text style="font-family:Arial;font-size:9px;font-stretch:normal;font-style:normal;font-weight:normal;" transform="translate(93.247031 127.488042)">Chagas disease</text>
     </g>
    </g>
    <g id="ytick_3">
     <g id="line2d_21"/>
     <g id="text_13">
      <text style="font-family:Arial;font-size:9px;font-stretch:normal;font-style:normal;font-weight:normal;" transform="translate(15.745781 161.842774)">Mixed, incl. FCERI mediated MAPK</text>
      <text style="font-family:Arial;font-size:9px;font-stretch:normal;font-style:normal;font-weight:normal;" transform="translate(42.717656 171.361962)">activation, and Cell adhesion</text>
      <text style="font-family:Arial;font-size:9px;font-stretch:normal;font-style:normal;font-weight:normal;" transform="translate(117.27 180.881149)">molecules</text>
     </g>
    </g>
    <g id="ytick_4">
     <g id="line2d_22"/>
     <g id="text_14">
      <text style="font-family:Arial;font-size:9px;font-stretch:normal;font-style:normal;font-weight:normal;" transform="translate(7.2 215.367507)">Chagas disease, and Immunoglobulin</text>
      <text style="font-family:Arial;font-size:9px;font-stretch:normal;font-style:normal;font-weight:normal;" transform="translate(93.248437 224.992163)">receptor binding</text>
     </g>
    </g>
   </g>
   <g id="patch_3">
    <path clip-path="url(#p489051e21f)" d="M 161.285469 192.853518 &#10;L 546.43271 192.853518 &#10;L 546.43271 236.740244 &#10;L 161.285469 236.740244 &#10;z&#10;" style="fill:#234da0;opacity:0.1;"/>
   </g>
   <g id="patch_4">
    <path clip-path="url(#p489051e21f)" d="M 161.285469 144.090489 &#10;L 546.43271 144.090489 &#10;L 546.43271 187.977215 &#10;L 161.285469 187.977215 &#10;z&#10;" style="fill:#1f7ab5;opacity:0.1;"/>
   </g>
   <g id="patch_5">
    <path clip-path="url(#p489051e21f)" d="M 161.285469 46.564431 &#10;L 546.43271 46.564431 &#10;L 546.43271 139.214186 &#10;L 161.285469 139.214186 &#10;z&#10;" style="fill:#d6efb3;opacity:0.1;"/>
   </g>
   <g id="horizontalLine_NetworkNeighborAL:CL.6652">
    <path data-original-stroke="grey" clip-path="url(#p489051e21f)" d="M 161.285469 69.970685 &#10;L 526.064346 69.970685 &#10;" style="fill:none;stroke:#d6efb3;stroke-linecap:square;stroke-width:3;"/>
   </g>
   <g id="horizontalLine_NetworkNeighborAL:CL.6653">
    <path data-original-stroke="grey" clip-path="url(#p489051e21f)" d="M 161.285469 118.733714 &#10;L 381.049393 118.733714 &#10;" style="fill:none;stroke:#5fc1c0;stroke-linecap:square;stroke-width:3;"/>
   </g>
   <g id="horizontalLine_NetworkNeighborAL:CL.6642">
    <path data-original-stroke="grey" clip-path="url(#p489051e21f)" d="M 161.285469 167.496743 &#10;L 217.907571 167.496743 &#10;" style="fill:none;stroke:#1f7ab5;stroke-linecap:square;stroke-width:3;"/>
   </g>
   <g id="horizontalLine_NetworkNeighborAL:CL.6701">
    <path data-original-stroke="grey" clip-path="url(#p489051e21f)" d="M 161.285469 216.259772 &#10;L 181.653832 216.259772 &#10;" style="fill:none;stroke:#234da0;stroke-linecap:square;stroke-width:3;"/>
   </g>
   <g id="line2d_23">
    <path clip-path="url(#p489051e21f)" d="M 161.285469 69.970685 &#10;L 526.064346 69.970685 &#10;" style="fill:none;stroke:#ffffff;stroke-linecap:square;stroke-opacity:0.4;stroke-width:3;"/>
   </g>
   <g id="line2d_24">
    <path clip-path="url(#p489051e21f)" d="M 161.285469 118.733714 &#10;L 381.049393 118.733714 &#10;" style="fill:none;stroke:#ffffff;stroke-linecap:square;stroke-opacity:0.4;stroke-width:3;"/>
   </g>
   <g id="line2d_25">
    <path clip-path="url(#p489051e21f)" d="M 161.285469 167.496743 &#10;L 217.907571 167.496743 &#10;" style="fill:none;stroke:#ffffff;stroke-linecap:square;stroke-opacity:0.4;stroke-width:3;"/>
   </g>
   <g id="line2d_26">
    <path clip-path="url(#p489051e21f)" d="M 161.285469 216.259772 &#10;L 181.653832 216.259772 &#10;" style="fill:none;stroke:#ffffff;stroke-linecap:square;stroke-opacity:0.4;stroke-width:3;"/>
   </g>
   <g id="dots_plot">
    <path id="circle_NetworkNeighborAL:CL.6652" data-original-stroke="grey" clip-path="url(#p489051e21f)" d="M 526.064346 80.458774 &#10;C 528.84582 80.458774 531.513746 79.353683 533.480545 77.386884 &#10;C 535.447343 75.420085 536.552435 72.752159 536.552435 69.970685 &#10;C 536.552435 67.189212 535.447343 64.521286 533.480545 62.554487 &#10;C 531.513746 60.587688 528.84582 59.482597 526.064346 59.482597 &#10;C 523.282872 59.482597 520.614946 60.587688 518.648148 62.554487 &#10;C 516.681349 64.521286 515.576258 67.189212 515.576258 69.970685 &#10;C 515.576258 72.752159 516.681349 75.420085 518.648148 77.386884 &#10;C 520.614946 79.353683 523.282872 80.458774 526.064346 80.458774 &#10;z&#10;" style="fill:#d6efb3;stroke:#d6efb3;stroke-width:2.2;"/>
    <path id="circle_NetworkNeighborAL:CL.6653" data-original-stroke="grey" clip-path="url(#p489051e21f)" d="M 381.049393 128.220547 &#10;C 383.56533 128.220547 385.97856 127.220955 387.757597 125.441918 &#10;C 389.536633 123.662882 390.536226 121.249652 390.536226 118.733714 &#10;C 390.536226 116.217777 389.536633 113.804547 387.757597 112.02551 &#10;C 385.97856 110.246474 383.56533 109.246881 381.049393 109.246881 &#10;C 378.533455 109.246881 376.120226 110.246474 374.341189 112.02551 &#10;C 372.562153 113.804547 371.56256 116.217777 371.56256 118.733714 &#10;C 371.56256 121.249652 372.562153 123.662882 374.341189 125.441918 &#10;C 376.120226 127.220955 378.533455 128.220547 381.049393 128.220547 &#10;z&#10;" style="fill:#5fc1c0;stroke:#5fc1c0;stroke-width:2.2;"/>
    <path id="circle_NetworkNeighborAL:CL.6642" data-original-stroke="grey" clip-path="url(#p489051e21f)" d="M 217.907571 179.744192 &#10;C 221.155632 179.744192 224.271099 178.453724 226.567825 176.156997 &#10;C 228.864551 173.860271 230.155019 170.744805 230.155019 167.496743 &#10;C 230.155019 164.248682 228.864551 161.133215 226.567825 158.836489 &#10;C 224.271099 156.539763 221.155632 155.249295 217.907571 155.249295 &#10;C 214.659509 155.249295 211.544043 156.539763 209.247317 158.836489 &#10;C 206.95059 161.133215 205.660122 164.248682 205.660122 167.496743 &#10;C 205.660122 170.744805 206.95059 173.860271 209.247317 176.156997 &#10;C 211.544043 178.453724 214.659509 179.744192 217.907571 179.744192 &#10;z&#10;" style="fill:#1f7ab5;stroke:#1f7ab5;stroke-width:2.2;"/>
    <path id="circle_NetworkNeighborAL:CL.6701" data-original-stroke="grey" clip-path="url(#p489051e21f)" d="M 181.653832 223.33084 &#10;C 183.529102 223.33084 185.327817 222.585788 186.653832 221.259772 &#10;C 187.979848 219.933757 188.7249 218.135041 188.7249 216.259772 &#10;C 188.7249 214.384503 187.979848 212.585788 186.653832 211.259772 &#10;C 185.327817 209.933757 183.529102 209.188704 181.653832 209.188704 &#10;C 179.778563 209.188704 177.979848 209.933757 176.653832 211.259772 &#10;C 175.327817 212.585788 174.582765 214.384503 174.582765 216.259772 &#10;C 174.582765 218.135041 175.327817 219.933757 176.653832 221.259772 &#10;C 177.979848 222.585788 179.778563 223.33084 181.653832 223.33084 &#10;z&#10;" style="fill:#234da0;stroke:#234da0;stroke-width:2.2;"/>
   </g>
   <g id="PathCollection_1">
    <path clip-path="url(#p489051e21f)" d="M 526.064346 80.458774 &#10;C 528.84582 80.458774 531.513746 79.353683 533.480545 77.386884 &#10;C 535.447343 75.420085 536.552435 72.752159 536.552435 69.970685 &#10;C 536.552435 67.189212 535.447343 64.521286 533.480545 62.554487 &#10;C 531.513746 60.587688 528.84582 59.482597 526.064346 59.482597 &#10;C 523.282872 59.482597 520.614946 60.587688 518.648148 62.554487 &#10;C 516.681349 64.521286 515.576258 67.189212 515.576258 69.970685 &#10;C 515.576258 72.752159 516.681349 75.420085 518.648148 77.386884 &#10;C 520.614946 79.353683 523.282872 80.458774 526.064346 80.458774 &#10;z&#10;" style="fill:none;stroke:#808080;stroke-opacity:0.45;stroke-width:2.2;"/>
    <path clip-path="url(#p489051e21f)" d="M 381.049393 128.220547 &#10;C 383.56533 128.220547 385.97856 127.220955 387.757597 125.441918 &#10;C 389.536633 123.662882 390.536226 121.249652 390.536226 118.733714 &#10;C 390.536226 116.217777 389.536633 113.804547 387.757597 112.02551 &#10;C 385.97856 110.246474 383.56533 109.246881 381.049393 109.246881 &#10;C 378.533455 109.246881 376.120226 110.246474 374.341189 112.02551 &#10;C 372.562153 113.804547 371.56256 116.217777 371.56256 118.733714 &#10;C 371.56256 121.249652 372.562153 123.662882 374.341189 125.441918 &#10;C 376.120226 127.220955 378.533455 128.220547 381.049393 128.220547 &#10;z&#10;" style="fill:none;stroke:#808080;stroke-opacity:0.45;stroke-width:2.2;"/>
    <path clip-path="url(#p489051e21f)" d="M 217.907571 179.744192 &#10;C 221.155632 179.744192 224.271099 178.453724 226.567825 176.156997 &#10;C 228.864551 173.860271 230.155019 170.744805 230.155019 167.496743 &#10;C 230.155019 164.248682 228.864551 161.133215 226.567825 158.836489 &#10;C 224.271099 156.539763 221.155632 155.249295 217.907571 155.249295 &#10;C 214.659509 155.249295 211.544043 156.539763 209.247317 158.836489 &#10;C 206.95059 161.133215 205.660122 164.248682 205.660122 167.496743 &#10;C 205.660122 170.744805 206.95059 173.860271 209.247317 176.156997 &#10;C 211.544043 178.453724 214.659509 179.744192 217.907571 179.744192 &#10;z&#10;" style="fill:none;stroke:#808080;stroke-opacity:0.45;stroke-width:2.2;"/>
    <path clip-path="url(#p489051e21f)" d="M 181.653832 223.33084 &#10;C 183.529102 223.33084 185.327817 222.585788 186.653832 221.259772 &#10;C 187.979848 219.933757 188.7249 218.135041 188.7249 216.259772 &#10;C 188.7249 214.384503 187.979848 212.585788 186.653832 211.259772 &#10;C 185.327817 209.933757 183.529102 209.188704 181.653832 209.188704 &#10;C 179.778563 209.188704 177.979848 209.933757 176.653832 211.259772 &#10;C 175.327817 212.585788 174.582765 214.384503 174.582765 216.259772 &#10;C 174.582765 218.135041 175.327817 219.933757 176.653832 221.259772 &#10;C 177.979848 222.585788 179.778563 223.33084 181.653832 223.33084 &#10;z&#10;" style="fill:none;stroke:#808080;stroke-opacity:0.45;stroke-width:2.2;"/>
   </g>
   <g id="text_15">
    <text style="font-family:Arial;font-size:11px;font-stretch:normal;font-style:normal;font-weight:normal;text-anchor:middle;" transform="rotate(-0, 353.859089, 15.207656)" x="353.859089" y="15.207656">Local Network Cluster (STRING) enrichment</text>
   </g>
   <g id="line2d_27">
    <path clip-path="url(#p489051e21f)" d="M 526.064346 61.924785 &#10;L 526.064346 78.016585 &#10;" style="fill:none;stroke:#808080;stroke-dasharray:1.85,0.8;stroke-dashoffset:0;stroke-width:0.5;"/>
   </g>
   <g id="line2d_28">
    <path clip-path="url(#p489051e21f)" d="M 381.049393 112.150705 &#10;L 381.049393 125.316723 &#10;" style="fill:none;stroke:#808080;stroke-dasharray:1.85,0.8;stroke-dashoffset:0;stroke-width:0.5;"/>
   </g>
   <g id="line2d_29">
    <path clip-path="url(#p489051e21f)" d="M 217.907571 156.525062 &#10;L 217.907571 178.468425 &#10;" style="fill:none;stroke:#808080;stroke-dasharray:1.85,0.8;stroke-dashoffset:0;stroke-width:0.5;"/>
   </g>
   <g id="line2d_30">
    <path clip-path="url(#p489051e21f)" d="M 181.653832 212.602545 &#10;L 181.653832 219.916999 &#10;" style="fill:none;stroke:#808080;stroke-dasharray:1.85,0.8;stroke-dashoffset:0;stroke-width:0.5;"/>
   </g>
   <g id="invisibleRectangle_NetworkNeighborAL:CL.6701" style="cursor: pointer;">
    <path clip-path="url(#p489051e21f)" d="M 161.285469 192.853518 &#10;L 546.43271 192.853518 &#10;L 546.43271 236.740244 &#10;L 161.285469 236.740244 &#10;z&#10;" style="fill:#ffffff;opacity:0.01;"/>
   </g>
   <g id="invisibleRectangle_NetworkNeighborAL:CL.6642" style="cursor: pointer;">
    <path clip-path="url(#p489051e21f)" d="M 161.285469 144.090489 &#10;L 546.43271 144.090489 &#10;L 546.43271 187.977215 &#10;L 161.285469 187.977215 &#10;z&#10;" style="fill:#ffffff;opacity:0.01;"/>
   </g>
   <g id="invisibleRectangle_NetworkNeighborAL:CL.6653" style="cursor: pointer;">
    <path clip-path="url(#p489051e21f)" d="M 161.285469 95.32746 &#10;L 546.43271 95.32746 &#10;L 546.43271 139.214186 &#10;L 161.285469 139.214186 &#10;z&#10;" style="fill:#ffffff;opacity:0.01;"/>
   </g>
   <g id="invisibleRectangle_NetworkNeighborAL:CL.6652" style="cursor: pointer;">
    <path clip-path="url(#p489051e21f)" d="M 161.285469 46.564431 &#10;L 546.43271 46.564431 &#10;L 546.43271 90.451157 &#10;L 161.285469 90.451157 &#10;z&#10;" style="fill:#ffffff;opacity:0.01;"/>
   </g>
  </g>
  <g id="axes_2">
   <g id="patch_6">
    <path d="M 552.91271 265.022801 &#10;L 649.19952 265.022801 &#10;L 649.19952 21.207656 &#10;L 552.91271 21.207656 &#10;z&#10;" style="fill:none;"/>
   </g>
   <g id="patch_7">
    <path clip-path="url(#p89bcde433f)" d="M 552.91271 236.98406 &#10;L 564.948561 236.98406 &#10;L 564.948561 192.609703 &#10;L 552.91271 192.609703 &#10;z&#10;" style="fill:#234da0;"/>
   </g>
   <g id="patch_8">
    <path clip-path="url(#p89bcde433f)" d="M 552.91271 188.221031 &#10;L 564.948561 188.221031 &#10;L 564.948561 143.846674 &#10;L 552.91271 143.846674 &#10;z&#10;" style="fill:#1f7ab5;"/>
   </g>
   <g id="patch_9">
    <path clip-path="url(#p89bcde433f)" d="M 552.91271 139.458002 &#10;L 564.948561 139.458002 &#10;L 564.948561 46.320616 &#10;L 552.91271 46.320616 &#10;z&#10;" style="fill:#d6efb3;"/>
   </g>
   <g id="matplotlib.axis_3"/>
   <g id="matplotlib.axis_4"/>
   <g id="text_16">
    <text style="font-family:Arial;font-size:9px;font-stretch:normal;font-style:normal;font-weight:normal;" transform="translate(579.313162 184.724787)rotate(-90)">Groups at similarity 0.8</text>
   </g>
  </g>
  <g id="axes_3">
   <g id="patch_10">
    <path d="M 587.39976 122.99976 &#10;L 652.19976 122.99976 &#10;L 652.19976 14.99976 &#10;L 587.39976 14.99976 &#10;z&#10;" style="fill:none;"/>
   </g>
   <g id="PathCollection_2">
    <defs>
     <path d="M -70.710678 70.710678 &#10;L 70.710678 70.710678 &#10;L 70.710678 -70.710678 &#10;L -70.710678 -70.710678 &#10;z&#10;" id="mbe5436a5ab" style="stroke:#ffffff;stroke-opacity:0.6;"/>
    </defs>
    <g clip-path="url(#pcc784c0aa2)">
     <use style="fill:#ffffff;fill-opacity:0.6;stroke:#ffffff;stroke-opacity:0.6;" x="619.79976" xlink:href="#mbe5436a5ab" y="68.99976"/>
    </g>
   </g>
   <g id="matplotlib.axis_5">
    <g id="xtick_10"/>
    <g id="xtick_11"/>
    <g id="xtick_12"/>
   </g>
   <g id="matplotlib.axis_6">
    <g id="ytick_5"/>
    <g id="ytick_6"/>
    <g id="ytick_7"/>
    <g id="ytick_8"/>
    <g id="ytick_9"/>
   </g>
  </g>
  <g id="axes_4">
   <g id="patch_11">
    <path d="M 593.87976 119.39976 &#10;L 604.67976 119.39976 &#10;L 604.67976 32.99976 &#10;L 593.87976 32.99976 &#10;z&#10;" style="fill:none;"/>
   </g>
   <g id="patch_12">
    <path clip-path="url(#pfba2459d11)" d="M 593.87976 32.99976 &#10;L 593.87976 47.39976 &#10;L 593.87976 104.99976 &#10;L 593.87976 119.39976 &#10;L 604.67976 119.39976 &#10;L 604.67976 104.99976 &#10;L 604.67976 47.39976 &#10;L 604.67976 32.99976 &#10;L 604.67976 32.99976 &#10;z&#10;" style="fill:#ffffff;stroke:#ffffff;stroke-linejoin:miter;stroke-width:0.01;"/>
   </g>
   <g id="QuadMesh_1">
    <path clip-path="url(#pfba2459d11)" d="M 593.87976 32.99976 &#10;L 604.67976 32.99976 &#10;L 604.67976 47.39976 &#10;L 593.87976 47.39976 &#10;L 593.87976 32.99976 &#10;" style="fill:#d6efb3;"/>
    <path clip-path="url(#pfba2459d11)" d="M 593.87976 47.39976 &#10;L 604.67976 47.39976 &#10;L 604.67976 61.79976 &#10;L 593.87976 61.79976 &#10;L 593.87976 47.39976 &#10;" style="fill:#a0dab8;"/>
    <path clip-path="url(#pfba2459d11)" d="M 593.87976 61.79976 &#10;L 604.67976 61.79976 &#10;L 604.67976 76.19976 &#10;L 593.87976 76.19976 &#10;L 593.87976 61.79976 &#10;" style="fill:#5fc1c0;"/>
    <path clip-path="url(#pfba2459d11)" d="M 593.87976 76.19976 &#10;L 604.67976 76.19976 &#10;L 604.67976 90.59976 &#10;L 593.87976 90.59976 &#10;L 593.87976 76.19976 &#10;" style="fill:#2fa4c2;"/>
    <path clip-path="url(#pfba2459d11)" d="M 593.87976 90.59976 &#10;L 604.67976 90.59976 &#10;L 604.67976 104.99976 &#10;L 593.87976 104.99976 &#10;L 593.87976 90.59976 &#10;" style="fill:#1f7ab5;"/>
    <path clip-path="url(#pfba2459d11)" d="M 593.87976 104.99976 &#10;L 604.67976 104.99976 &#10;L 604.67976 119.39976 &#10;L 593.87976 119.39976 &#10;L 593.87976 104.99976 &#10;" style="fill:#234da0;"/>
   </g>
   <g id="matplotlib.axis_7"/>
   <g id="matplotlib.axis_8">
    <g id="ytick_10">
     <g id="line2d_31">
      <defs>
       <path d="M 0 0 &#10;L 3.5 0 &#10;" id="m67b9f7fe16" style="stroke:#000000;stroke-width:0.8;"/>
      </defs>
      <g>
       <use style="stroke:#000000;stroke-width:0.8;" x="604.67976" xlink:href="#m67b9f7fe16" y="112.19976"/>
      </g>
     </g>
     <g id="text_17">
      <text style="font-family:Arial;font-size:9px;font-stretch:normal;font-style:normal;font-weight:normal;text-anchor:start;" transform="rotate(-0, 611.67976, 115.420776)" x="611.67976" y="115.420776">2.6e-03</text>
     </g>
    </g>
    <g id="ytick_11">
     <g id="line2d_32">
      <g>
       <use style="stroke:#000000;stroke-width:0.8;" x="604.67976" xlink:href="#m67b9f7fe16" y="97.79976"/>
      </g>
     </g>
     <g id="text_18">
      <text style="font-family:Arial;font-size:9px;font-stretch:normal;font-style:normal;font-weight:normal;text-anchor:start;" transform="rotate(-0, 611.67976, 101.020776)" x="611.67976" y="101.020776">1.3e-03</text>
     </g>
    </g>
    <g id="ytick_12">
     <g id="line2d_33">
      <g>
       <use style="stroke:#000000;stroke-width:0.8;" x="604.67976" xlink:href="#m67b9f7fe16" y="83.39976"/>
      </g>
     </g>
     <g id="text_19">
      <text style="font-family:Arial;font-size:9px;font-stretch:normal;font-style:normal;font-weight:normal;text-anchor:start;" transform="rotate(-0, 611.67976, 86.620776)" x="611.67976" y="86.620776">6.9e-04</text>
     </g>
    </g>
    <g id="ytick_13">
     <g id="line2d_34">
      <g>
       <use style="stroke:#000000;stroke-width:0.8;" x="604.67976" xlink:href="#m67b9f7fe16" y="68.99976"/>
      </g>
     </g>
     <g id="text_20">
      <text style="font-family:Arial;font-size:9px;font-stretch:normal;font-style:normal;font-weight:normal;text-anchor:start;" transform="rotate(-0, 611.67976, 72.220776)" x="611.67976" y="72.220776">3.4e-04</text>
     </g>
    </g>
    <g id="ytick_14">
     <g id="line2d_35">
      <g>
       <use style="stroke:#000000;stroke-width:0.8;" x="604.67976" xlink:href="#m67b9f7fe16" y="54.59976"/>
      </g>
     </g>
     <g id="text_21">
      <text style="font-family:Arial;font-size:9px;font-stretch:normal;font-style:normal;font-weight:normal;text-anchor:start;" transform="rotate(-0, 611.67976, 57.820776)" x="611.67976" y="57.820776">1.7e-04</text>
     </g>
    </g>
    <g id="ytick_15">
     <g id="line2d_36">
      <g>
       <use style="stroke:#000000;stroke-width:0.8;" x="604.67976" xlink:href="#m67b9f7fe16" y="40.19976"/>
      </g>
     </g>
     <g id="text_22">
      <text style="font-family:Arial;font-size:9px;font-stretch:normal;font-style:normal;font-weight:normal;text-anchor:start;" transform="rotate(-0, 611.67976, 43.420776)" x="611.67976" y="43.420776">8.9e-05</text>
     </g>
    </g>
   </g>
   <g id="LineCollection_1"/>
   <g id="patch_13">
    <path d="M 593.87976 32.99976 &#10;L 593.87976 47.39976 &#10;L 593.87976 104.99976 &#10;L 593.87976 119.39976 &#10;L 604.67976 119.39976 &#10;L 604.67976 104.99976 &#10;L 604.67976 47.39976 &#10;L 604.67976 32.99976 &#10;z&#10;" style="fill:none;"/>
   </g>
   <g id="text_23">
    <text style="font-family:Arial;font-size:9px;font-stretch:normal;font-style:normal;font-weight:normal;text-anchor:middle;" transform="rotate(-0, 599.27976, 26.99976)" x="599.27976" y="26.99976">FDR</text>
   </g>
  </g>
  <g id="axes_5">
   <g id="patch_14">
    <path d="M 587.39976 236.32776 &#10;L 648.95976 236.32776 &#10;L 648.95976 130.57416 &#10;L 587.39976 130.57416 &#10;z&#10;" style="fill:none;"/>
   </g>
   <g id="PathCollection_3">
    <g clip-path="url(#p49228133c8)">
     <use style="fill:#ffffff;fill-opacity:0.6;stroke:#ffffff;stroke-opacity:0.6;" x="618.17976" xlink:href="#mbe5436a5ab" y="183.45096"/>
    </g>
   </g>
   <g id="matplotlib.axis_9">
    <g id="xtick_13"/>
    <g id="xtick_14"/>
    <g id="xtick_15"/>
   </g>
   <g id="matplotlib.axis_10">
    <g id="ytick_16"/>
    <g id="ytick_17"/>
    <g id="ytick_18"/>
    <g id="ytick_19"/>
    <g id="ytick_20"/>
   </g>
  </g>
  <g id="axes_6">
   <g id="PathCollection_4">
    <defs>
     <path d="M 0 7.071068 &#10;C 1.875269 7.071068 3.673985 6.326016 5 5 &#10;C 6.326016 3.673985 7.071068 1.875269 7.071068 0 &#10;C 7.071068 -1.875269 6.326016 -3.673985 5 -5 &#10;C 3.673985 -6.326016 1.875269 -7.071068 0 -7.071068 &#10;C -1.875269 -7.071068 -3.673985 -6.326016 -5 -5 &#10;C -6.326016 -3.673985 -7.071068 -1.875269 -7.071068 0 &#10;C -7.071068 1.875269 -6.326016 3.673985 -5 5 &#10;C -3.673985 6.326016 -1.875269 7.071068 0 7.071068 &#10;z&#10;" id="m83f31c9c37" style="stroke:#b5c2a4;stroke-width:2.2;"/>
    </defs>
    <g clip-path="url(#p9854de2f52)">
     <use style="fill:#d6efb3;stroke:#b5c2a4;stroke-width:2.2;" x="610.07976" xlink:href="#m83f31c9c37" y="158.368375"/>
    </g>
   </g>
   <g id="PathCollection_5">
    <defs>
     <path d="M 0 10.488088 &#10;C 2.781474 10.488088 5.4494 9.382997 7.416198 7.416198 &#10;C 9.382997 5.4494 10.488088 2.781474 10.488088 0 &#10;C 10.488088 -2.781474 9.382997 -5.4494 7.416198 -7.416198 &#10;C 5.4494 -9.382997 2.781474 -10.488088 0 -10.488088 &#10;C -2.781474 -10.488088 -5.4494 -9.382997 -7.416198 -7.416198 &#10;C -9.382997 -5.4494 -10.488088 -2.781474 -10.488088 0 &#10;C -10.488088 2.781474 -9.382997 5.4494 -7.416198 7.416198 &#10;C -5.4494 9.382997 -2.781474 10.488088 0 10.488088 &#10;z&#10;" id="me1ec29d865" style="stroke:#b5c2a4;stroke-width:2.2;"/>
    </defs>
    <g clip-path="url(#p9854de2f52)">
     <use style="fill:#d6efb3;stroke:#b5c2a4;stroke-width:2.2;" x="610.07976" xlink:href="#me1ec29d865" y="184.242278"/>
    </g>
   </g>
   <g id="PathCollection_6">
    <defs>
     <path d="M 0 12.247449 &#10;C 3.248061 12.247449 6.363528 10.95698 8.660254 8.660254 &#10;C 10.95698 6.363528 12.247449 3.248061 12.247449 0 &#10;C 12.247449 -3.248061 10.95698 -6.363528 8.660254 -8.660254 &#10;C 6.363528 -10.95698 3.248061 -12.247449 0 -12.247449 &#10;C -3.248061 -12.247449 -6.363528 -10.95698 -8.660254 -8.660254 &#10;C -10.95698 -6.363528 -12.247449 -3.248061 -12.247449 0 &#10;C -12.247449 3.248061 -10.95698 6.363528 -8.660254 8.660254 &#10;C -6.363528 10.95698 -3.248061 12.247449 0 12.247449 &#10;z&#10;" id="mee42f09398" style="stroke:#b5c2a4;stroke-width:2.2;"/>
    </defs>
    <g clip-path="url(#p9854de2f52)">
     <use style="fill:#d6efb3;stroke:#b5c2a4;stroke-width:2.2;" x="610.07976" xlink:href="#mee42f09398" y="215.049728"/>
    </g>
   </g>
   <g id="text_24">
    <text style="font-family:Arial;font-size:9px;font-stretch:normal;font-style:normal;font-weight:normal;text-anchor:start;" transform="rotate(-0, 626.27976, 161.824862)" x="626.27976" y="161.824862">3</text>
   </g>
   <g id="text_25">
    <text style="font-family:Arial;font-size:9px;font-stretch:normal;font-style:normal;font-weight:normal;text-anchor:start;" transform="rotate(-0, 626.27976, 187.698765)" x="626.27976" y="187.698765">6</text>
   </g>
   <g id="text_26">
    <text style="font-family:Arial;font-size:9px;font-stretch:normal;font-style:normal;font-weight:normal;text-anchor:start;" transform="rotate(-0, 626.27976, 218.506215)" x="626.27976" y="218.506215">8</text>
   </g>
   <g id="text_27">
    <text style="font-family:Arial;font-size:9px;font-stretch:normal;font-style:normal;font-weight:normal;text-anchor:middle;" transform="rotate(-0, 616.55976, 142.19976)" x="616.55976" y="142.19976">Gene count</text>
   </g>
  </g>
 </g>
 <defs>
  <clipPath id="p489051e21f">
   <rect height="243.815145" width="385.147241" x="161.285469" y="21.207656"/>
  </clipPath>
  <clipPath id="p89bcde433f">
   <rect height="243.815145" width="96.28681" x="552.91271" y="21.207656"/>
  </clipPath>
  <clipPath id="pcc784c0aa2">
   <rect height="108" width="64.8" x="587.39976" y="14.99976"/>
  </clipPath>
  <clipPath id="pfba2459d11">
   <rect height="86.4" width="10.8" x="593.87976" y="32.99976"/>
  </clipPath>
  <clipPath id="p49228133c8">
   <rect height="105.7536" width="61.56" x="587.39976" y="130.57416"/>
  </clipPath>
  <clipPath id="p9854de2f52">
   <rect height="146.88" width="32.4" x="593.87976" y="148.19976"/>
  </clipPath>
 </defs>
</svg>